<?xml version="1.0" standalone="no"?>
<!DOCTYPE svg PUBLIC "-//W3C//DTD SVG 20010904//EN"
 "http://www.w3.org/TR/2001/REC-SVG-20010904/DTD/svg10.dtd">
<svg version="1.0" xmlns="http://www.w3.org/2000/svg"
 width="358.000000pt" height="352.000000pt" viewBox="0 0 358.000000 352.000000"
 preserveAspectRatio="xMidYMid meet">

<g transform="translate(0.000000,352.000000) scale(0.100000,-0.100000)"
fill="#000000" stroke="none">
<path d="M1601 3509 c-337 -36 -662 -166 -926 -374 -92 -72 -250 -232 -318
-322 -450 -592 -473 -1402 -59 -2018 80 -118 203 -258 305 -346 114 -98 283
-210 304 -202 11 4 14 3 9 -5 -5 -8 4 -12 28 -12 20 0 36 5 36 10 0 6 11 10
24 10 13 0 27 6 29 13 3 6 6 1 6 -12 1 -21 3 -23 14 -10 6 8 21 22 31 29 18
14 19 13 13 -2 -4 -12 -2 -15 8 -11 8 3 12 9 9 14 -3 5 2 9 10 9 9 0 16 -8 16
-17 0 -15 2 -16 9 -3 6 8 7 18 4 24 -4 5 -1 6 8 0 8 -4 20 -9 27 -10 11 -2 11
0 0 13 -12 14 -9 14 18 0 31 -16 33 -16 48 6 8 12 13 15 10 6 -3 -10 1 -16 11
-16 8 0 15 6 15 13 0 7 8 10 20 7 14 -4 20 0 20 12 0 14 3 15 14 6 11 -10 20
-10 38 0 13 7 24 12 26 11 10 -7 22 1 22 16 0 13 2 14 9 3 6 -10 10 -10 16 -1
5 8 17 3 39 -18 110 -104 287 -152 490 -131 325 33 674 217 966 509 445 445
600 999 364 1304 -25 32 -41 55 -35 52 6 -4 11 -3 11 3 0 6 10 20 23 32 20 20
20 21 2 15 -18 -6 -19 -5 -3 7 10 8 15 17 11 20 -3 4 0 7 7 7 9 0 8 5 -5 13
-13 10 -15 16 -6 21 6 4 8 12 5 18 -5 7 -2 9 8 5 16 -6 43 37 33 53 -3 4 2 10
10 14 8 3 15 13 15 22 0 12 -3 14 -13 6 -10 -8 -13 -6 -13 8 0 12 6 17 18 15
23 -5 23 4 1 22 -17 14 -17 14 -1 9 10 -3 20 -1 23 4 4 6 3 10 -2 10 -4 0 -9
11 -9 26 -2 20 0 22 10 12 6 -7 10 -11 9 -9 -2 2 3 11 10 19 9 13 9 14 0 8 -7
-4 -13 -2 -13 3 0 6 5 11 10 11 6 0 10 5 10 10 0 6 -8 10 -17 10 -13 0 -14 3
-5 12 9 9 1 31 -34 97 -136 250 -314 454 -541 618 -107 77 -354 201 -483 243
-242 77 -502 104 -749 79z m-196 -3169 c3 -5 0 -7 -8 -4 -8 3 -18 1 -22 -5 -8
-13 -25 -14 -25 -2 0 8 15 15 42 20 4 0 10 -3 13 -9z m-448 -96 c-3 -3 -12 -4
-19 -1 -8 3 -5 6 6 6 11 1 17 -2 13 -5z"/>
<path d="M3325 2180 c-3 -5 -1 -10 4 -10 6 0 11 5 11 10 0 6 -2 10 -4 10 -3 0
-8 -4 -11 -10z"/>
</g>
</svg>
